# Blender v2.93.5 OBJ File: 'crystal.blend'
# www.blender.org
mtllib crystal.mtl
o Crystal
v 0.000000 0.679778 0.300000
v 0.000000 0.753186 0.330573
v 0.083333 0.757352 0.313906
v 0.100000 0.679778 0.300000
v 0.000000 -0.453186 0.293893
v 0.000000 -0.340395 0.373002
v 0.100000 -0.309017 0.387785
v 0.100000 -0.453186 0.293893
v 0.000000 0.493075 0.300000
v 0.200000 0.493075 0.228503
v 0.000000 -0.797354 -0.000000
v 0.100000 -0.797354 -0.000000
v 0.000000 -0.190358 0.422543
v 0.100000 -0.190358 0.422543
v 0.000000 0.876593 0.165287
v 0.000000 1.000000 0.000000
v 0.100000 1.000000 0.000000
v 0.100000 0.851593 0.165287
v 0.200000 0.058006 0.341845
v 0.200000 -0.453186 -0.000000
v 0.250000 0.653185 0.000000
v 0.200000 0.306371 0.000000
v 0.100000 0.306371 0.261146
v 0.000000 0.306371 0.261146
v 0.300000 0.058006 0.000000
v 0.150000 0.182189 0.301495
v 0.250000 0.182189 0.000000
v 0.000000 0.078703 0.364197
v 0.000000 0.679778 -0.300000
v 0.100000 0.679778 -0.300000
v 0.083333 0.757352 -0.313906
v 0.000000 0.753186 -0.330573
v 0.000000 -0.453186 -0.293893
v 0.100000 -0.453186 -0.293893
v 0.100000 -0.309017 -0.387785
v 0.000000 -0.340395 -0.373002
v 0.000000 0.493075 -0.300000
v 0.200000 0.493075 -0.228503
v 0.000000 -0.190358 -0.422543
v 0.100000 -0.190358 -0.422543
v 0.000000 0.876593 -0.165287
v 0.100000 0.851593 -0.165287
v 0.200000 0.058006 -0.341845
v 0.100000 0.306371 -0.261146
v 0.000000 0.306371 -0.261146
v 0.150000 0.182189 -0.301495
v 0.000000 0.078703 -0.364197
v -0.100000 0.679778 0.300000
v -0.083333 0.757352 0.313906
v -0.100000 -0.453186 0.293893
v -0.100000 -0.309017 0.387785
v -0.200000 0.493075 0.228503
v -0.100000 -0.797354 -0.000000
v -0.100000 -0.190358 0.422543
v -0.100000 0.851593 0.165287
v -0.100000 1.000000 0.000000
v -0.200000 0.058006 0.341845
v -0.200000 -0.453186 -0.000000
v -0.100000 0.306371 0.261146
v -0.200000 0.306371 0.000000
v -0.250000 0.653185 0.000000
v -0.300000 0.058006 0.000000
v -0.150000 0.182189 0.301495
v -0.250000 0.182189 0.000000
v -0.083333 0.757352 -0.313906
v -0.100000 0.679778 -0.300000
v -0.100000 -0.309017 -0.387785
v -0.100000 -0.453186 -0.293893
v -0.200000 0.493075 -0.228503
v -0.100000 -0.190358 -0.422543
v -0.100000 0.851593 -0.165287
v -0.200000 0.058006 -0.341845
v -0.100000 0.306371 -0.261146
v -0.150000 0.182189 -0.301495
vt 0.588233 0.857547
vt 0.539324 0.903877
vt 0.524518 0.858056
vt 0.816030 0.147599
vt 0.854209 0.111958
vt 0.861941 0.147539
vt 0.844710 0.928971
vt 0.893774 0.946947
vt 0.858853 0.962604
vt 0.061839 0.358160
vt 0.162888 0.430344
vt 0.031037 0.412918
vt 0.700141 0.423100
vt 0.589141 0.394835
vt 0.718982 0.366305
vt 0.816143 0.233317
vt 0.862257 0.318908
vt 0.816346 0.318967
vt 0.908113 0.624473
vt 0.908113 0.547362
vt 0.954025 0.563234
vt 0.703507 0.193021
vt 0.655964 0.134576
vt 0.512691 0.000000
vt 0.546593 0.159705
vt 0.409516 0.905764
vt 0.447700 0.992972
vt 0.409391 0.999874
vt 0.777691 0.112058
vt 0.815914 0.113950
vt 0.154323 0.663391
vt 0.043111 0.648377
vt 0.611906 0.661459
vt 0.461087 0.688311
vt 0.498031 0.603218
vt 0.442736 0.465862
vt 0.587526 0.448769
vt 0.908131 0.433016
vt 0.816244 0.423672
vt 0.885194 0.375961
vt 0.770435 0.319027
vt 0.455548 0.811640
vt 0.455548 0.913602
vt 0.092640 0.303402
vt 0.176323 0.373557
vt 0.588233 0.903453
vt 1.000000 0.223903
vt 0.954041 0.066213
vt 0.999952 0.066399
vt 0.325305 0.447302
vt 0.524518 0.857631
vt 0.469980 0.811640
vt 0.524518 0.811720
vt 0.455548 0.857517
vt 0.427127 0.414789
vt 0.372430 0.248021
vt 0.405048 0.176259
vt 0.585910 0.502702
vt 0.861358 0.547362
vt 0.816505 0.651410
vt 0.815451 0.547362
vt 0.198295 0.158619
vt 0.093336 0.131045
vt 0.159334 0.059412
vt 0.371189 0.992996
vt 0.954025 0.624473
vt 0.908113 0.652394
vt 0.885585 0.704911
vt 0.817149 0.757428
vt 0.863056 0.757428
vt 0.816224 0.057005
vt 0.458345 0.516934
vt 0.770119 0.147659
vt 0.999937 0.624473
vt 0.999937 0.819800
vt 0.539324 0.812063
vt 0.588233 0.811640
vt 0.363735 0.811669
vt 0.409642 0.811655
vt 0.100117 0.220076
vt 0.343239 0.616869
vt 0.296101 0.677938
vt 0.153551 0.820217
vt 0.823238 0.976609
vt 0.802388 0.946768
vt 0.189757 0.316770
vt 0.813598 0.854985
vt 0.737736 0.793022
vt 0.780058 0.775225
vt 0.724487 0.433254
vt 0.747461 0.376140
vt 0.301617 0.076038
vt 0.237399 0.000000
vt 0.908131 0.066027
vt 0.954066 0.014566
vt 0.724487 0.879955
vt 0.908179 0.223531
vt 0.363735 0.913631
vt 0.009425 0.577864
vt 0.769544 0.547362
vt 0.724487 0.652394
vt 0.668604 0.732902
vt 0.527488 0.756345
vt 0.317441 0.329669
vt 0.770622 0.000119
vt 0.816533 0.000060
vt 0.681302 0.479895
vt 0.747865 0.704911
vt 0.771243 0.757428
vt 0.351583 0.161220
vt 0.296818 0.243060
vt 0.770361 0.547362
vt 0.724487 0.244139
vt 0.693119 0.570809
vt 0.862150 0.068423
vt 0.717216 0.645761
vt 0.724487 0.679091
vt 0.862183 0.547243
vt 0.321373 0.388486
vt 0.887032 0.911174
vt 0.724487 0.233312
vt 0.954089 0.223717
vt 0.770328 0.068542
vt 0.822379 0.757428
vt 0.893774 0.808767
vt 0.363735 0.304069
vt 0.469980 0.903462
vt 0.456485 0.723613
vt 1.000000 0.000372
vt 0.363735 0.564467
vt 0.363735 0.126480
vt 0.954025 0.819800
vt 0.862444 0.000000
vt 0.816272 0.547302
vt 0.605728 0.811640
vt 0.908131 0.233073
vt 0.524518 0.903542
vt 0.000000 0.521966
vt 0.999937 0.547362
vt 0.093517 0.094906
vt 0.908113 0.819800
vt 0.908179 0.000000
vn 0.0236 -0.2993 0.9539
vn -0.0933 0.2719 -0.9578
vn -0.0933 0.2719 0.9578
vn 0.8764 -0.3971 0.2725
vn 0.8764 -0.3971 0.2724
vn -0.8764 -0.3971 -0.2725
vn -0.8764 -0.3971 -0.2724
vn -0.2311 0.0780 -0.9698
vn -0.0263 0.5583 0.8292
vn -0.8967 0.1946 -0.3975
vn -0.9128 0.2652 -0.3106
vn 0.1437 -0.8097 0.5690
vn 0.1438 -0.8097 0.5690
vn 0.0933 0.2719 -0.9578
vn 0.9353 0.1967 0.2942
vn 0.9353 0.1968 0.2942
vn -0.9902 0.1395 0.0000
vn -0.9424 -0.0988 0.3196
vn -0.8764 -0.3971 0.2725
vn -0.8764 -0.3971 0.2724
vn -0.0310 -0.2730 -0.9615
vn -0.1336 -0.2572 -0.9571
vn -0.0715 -0.3853 -0.9200
vn -0.0549 -0.4118 -0.9096
vn -0.0713 -0.3851 -0.9201
vn 0.2311 0.0780 -0.9698
vn 0.0961 -0.7688 0.6322
vn 0.8644 -0.3979 0.3073
vn 0.8644 -0.3980 0.3073
vn 0.0000 0.6494 -0.7605
vn 0.9353 0.1967 -0.2942
vn 0.9353 0.1968 -0.2942
vn 0.0236 -0.2993 -0.9539
vn -0.8967 0.1946 0.3975
vn -0.9128 0.2652 0.3106
vn -0.9704 -0.1981 -0.1378
vn 0.0000 -0.3090 0.9511
vn -0.1336 -0.2572 0.9571
vn 0.9902 0.1395 0.0000
vn 0.9419 -0.0985 0.3211
vn 0.9424 -0.0989 0.3196
vn -0.1438 -0.8097 0.5690
vn -0.1437 -0.8097 0.5690
vn 0.0549 -0.4118 0.9096
vn -0.0715 -0.3853 0.9200
vn -0.0713 -0.3851 0.9201
vn -0.1437 -0.8097 -0.5690
vn -0.1438 -0.8097 -0.5690
vn -0.8644 -0.3979 0.3073
vn -0.8644 -0.3980 0.3073
vn 0.2301 0.1232 -0.9653
vn 0.2300 0.1232 -0.9653
vn 0.0263 0.5583 0.8292
vn 0.0000 0.6494 0.7605
vn -0.0236 -0.2993 0.9539
vn -0.0961 -0.7688 0.6322
vn 0.9424 -0.0988 0.3196
vn 0.8967 0.1946 -0.3975
vn 0.9128 0.2652 -0.3106
vn 0.0933 0.2719 0.9578
vn 0.9704 -0.1981 0.1378
vn 0.2311 0.0780 0.9698
vn 0.1336 -0.2572 -0.9571
vn 0.0715 -0.3853 -0.9200
vn 0.0713 -0.3851 -0.9201
vn -0.9353 0.1967 0.2942
vn -0.9353 0.1968 0.2942
vn 0.9424 -0.0989 -0.3196
vn 0.0263 0.5583 -0.8292
vn -0.9353 0.1967 -0.2942
vn -0.9353 0.1968 -0.2942
vn -0.0263 0.5583 -0.8292
vn 0.2301 0.1232 0.9653
vn 0.2300 0.1232 0.9653
vn 0.8967 0.1946 0.3975
vn 0.9128 0.2652 0.3106
vn 0.1336 -0.2572 0.9571
vn 0.0310 -0.2730 0.9615
vn -0.9424 -0.0989 -0.3196
vn -0.9424 -0.0989 0.3196
vn 0.8644 -0.3979 -0.3073
vn 0.8644 -0.3980 -0.3073
vn 0.0961 -0.7688 -0.6322
vn -0.8644 -0.3979 -0.3073
vn -0.8644 -0.3980 -0.3073
vn 0.0715 -0.3853 0.9200
vn 0.0713 -0.3851 0.9201
vn 0.9424 -0.0988 -0.3196
vn -0.0000 -0.3090 -0.9511
vn -0.9424 -0.0988 -0.3196
vn -0.9419 -0.0985 -0.3211
vn -0.9423 -0.0991 -0.3197
vn -0.2301 0.1232 0.9653
vn -0.2300 0.1232 0.9653
vn 0.1438 -0.8097 -0.5690
vn 0.1437 -0.8097 -0.5690
vn -0.2311 0.0780 0.9698
vn -0.0236 -0.2993 -0.9539
vn 0.8764 -0.3971 -0.2725
vn 0.8764 -0.3971 -0.2724
vn -0.2301 0.1232 -0.9653
vn -0.2300 0.1232 -0.9653
vn -0.0961 -0.7688 -0.6322
vn 0.9423 -0.0991 0.3197
usemtl None
s 1
f 13/1/1 51/2/1 6/3/1
f 1/4/2 3/5/2 4/6/2
f 29/7/3 31/8/3 32/9/3
f 74/10/4 62/11/5 72/12/4
f 26/13/6 25/14/7 19/15/6
f 9/16/8 23/17/8 24/18/8
f 34/19/9 35/20/9 36/21/9
f 7/22/10 19/15/10 8/23/10
f 12/24/11 8/23/11 20/25/11
f 41/26/12 65/27/13 32/28/12
f 1/4/14 49/29/14 2/30/14
f 72/12/15 58/31/16 68/32/16
f 21/33/17 30/34/18 38/35/18
f 46/36/19 25/14/20 27/37/20
f 19/38/21 28/39/22 26/40/22
f 26/40/23 24/18/24 23/17/25
f 59/41/26 9/16/26 24/18/26
f 41/26/27 56/42/27 71/43/27
f 73/44/28 64/45/29 74/10/29
f 13/1/1 54/46/1 51/2/1
f 12/47/30 5/48/30 8/49/30
f 57/50/31 58/31/32 62/11/31
f 39/51/33 67/52/33 70/53/33
f 39/51/33 36/54/33 67/52/33
f 43/55/34 35/56/34 34/57/34
f 12/24/35 20/25/35 34/57/35
f 22/58/36 21/33/17 38/35/18
f 40/59/37 47/60/38 39/61/37
f 61/62/39 66/63/40 71/64/41
f 31/65/42 41/26/43 32/28/43
f 34/19/9 36/21/9 33/66/9
f 47/60/38 43/67/38 46/68/38
f 45/69/44 46/68/45 44/70/46
f 15/71/47 3/5/48 2/30/47
f 44/72/49 27/37/50 22/58/50
f 9/16/51 48/73/52 1/4/51
f 36/21/53 68/74/53 33/66/53
f 53/75/54 33/66/54 68/74/54
f 13/1/55 7/76/55 14/77/55
f 41/26/56 17/78/56 16/79/56
f 61/62/39 69/80/57 66/63/40
f 57/50/58 51/81/58 50/82/58
f 53/83/59 58/31/59 50/82/59
f 46/36/19 43/55/19 25/14/20
f 29/7/60 65/84/60 66/85/60
f 61/62/39 60/86/61 69/80/57
f 37/87/62 73/88/62 45/89/62
f 45/69/44 47/60/46 46/68/45
f 28/39/63 57/90/63 63/91/63
f 24/18/24 63/91/64 59/41/65
f 43/55/66 20/25/67 25/14/66
f 55/92/68 71/64/41 56/93/68
f 50/94/69 6/95/69 5/48/69
f 19/15/70 20/25/71 8/23/71
f 6/95/72 8/49/72 5/48/72
f 37/87/73 66/85/74 69/96/73
f 5/48/30 53/97/30 50/94/30
f 31/65/42 42/98/43 41/26/43
f 67/99/75 72/12/75 68/32/75
f 53/83/76 68/32/76 58/31/76
f 70/100/37 47/60/77 72/101/78
f 18/102/79 42/103/80 21/33/17
f 59/104/81 64/45/82 60/86/82
f 15/71/83 56/105/83 16/106/83
f 23/107/84 27/37/85 26/13/85
f 72/101/78 47/60/77 74/108/77
f 74/108/86 45/69/44 73/109/87
f 61/62/39 48/110/88 52/111/88
f 40/59/37 43/67/38 47/60/38
f 43/55/66 34/57/67 20/25/67
f 1/4/2 2/30/2 3/5/2
f 54/112/89 57/90/63 28/39/63
f 37/87/73 29/7/73 66/85/74
f 23/107/84 22/58/85 27/37/85
f 7/22/10 14/113/10 19/15/10
f 72/12/15 62/11/15 58/31/16
f 41/26/27 16/79/27 56/42/27
f 22/58/36 23/107/90 10/114/90
f 15/71/47 18/115/47 3/5/48
f 4/116/91 3/117/92 18/102/79
f 14/118/89 28/39/22 19/38/21
f 41/26/56 42/98/56 17/78/56
f 24/18/24 26/40/23 28/39/65
f 59/104/81 63/119/82 64/45/82
f 37/87/93 30/120/94 29/7/93
f 59/41/26 52/121/26 9/16/26
f 5/48/30 11/122/30 53/97/30
f 12/47/30 11/122/30 5/48/30
f 13/1/55 6/3/55 7/76/55
f 41/26/12 71/43/12 65/27/13
f 49/29/95 55/123/96 15/71/96
f 37/87/62 69/96/62 73/88/62
f 44/124/97 38/125/97 37/87/97
f 43/55/34 40/126/34 35/56/34
f 39/51/98 35/127/98 36/54/98
f 42/103/80 31/128/80 30/34/18
f 38/35/18 44/72/18 22/58/36
f 44/72/49 46/36/50 27/37/50
f 44/124/97 37/87/97 45/89/97
f 29/7/3 30/120/3 31/8/3
f 9/16/51 52/121/51 48/73/52
f 63/119/99 57/50/99 62/11/100
f 15/71/83 55/123/83 56/105/83
f 24/18/24 28/39/65 63/91/64
f 73/44/28 60/86/29 64/45/29
f 70/100/37 39/61/77 47/60/77
f 22/58/36 10/114/90 21/33/17
f 45/69/44 74/108/86 47/60/46
f 1/4/14 48/73/14 49/29/14
f 9/16/101 1/4/101 4/6/102
f 6/95/72 7/129/72 8/49/72
f 37/87/93 38/125/93 30/120/94
f 57/50/58 54/130/58 51/81/58
f 21/33/17 42/103/80 30/34/18
f 55/92/68 49/131/68 48/110/88
f 52/111/88 59/104/88 60/86/61
f 53/75/54 11/132/54 33/66/54
f 15/71/103 17/133/103 18/115/103
f 26/13/6 27/37/7 25/14/7
f 61/62/39 52/111/88 60/86/61
f 21/33/17 10/114/90 4/116/91
f 61/62/39 55/92/68 48/110/88
f 21/33/17 4/116/91 18/102/79
f 54/112/89 28/39/63 13/134/89
f 18/102/79 17/135/80 42/103/80
f 57/50/31 50/82/32 58/31/32
f 55/92/68 61/62/39 71/64/41
f 9/16/8 10/136/8 23/17/8
f 19/15/70 25/14/70 20/25/71
f 39/51/98 40/137/98 35/127/98
f 67/99/75 70/138/75 72/12/75
f 63/119/99 62/11/100 64/45/100
f 9/16/101 4/6/102 10/136/101
f 60/86/61 73/44/57 69/80/57
f 36/21/53 67/139/53 68/74/53
f 66/63/40 65/140/104 71/64/41
f 74/10/4 64/45/5 62/11/5
f 29/7/60 32/9/60 65/84/60
f 15/71/103 16/106/103 17/133/103
f 14/118/89 13/134/22 28/39/22
f 33/66/54 12/141/54 34/19/54
f 49/29/95 15/71/96 2/30/96
f 50/94/69 51/142/69 6/95/69
f 33/66/54 11/132/54 12/141/54
